<?xml version="1.0" standalone="no"?>
<svg xmlns="http://www.w3.org/2000/svg" width="2000" height="2000"><defs><clipPath id="clip-path-dot-color"><rect x="130" y="730" width="60" height="60" transform="rotate(0,160,760)"/><rect x="130" y="790" width="60" height="60" transform="rotate(0,160,820)"/><rect x="130" y="850" width="60" height="60" transform="rotate(0,160,880)"/><rect x="130" y="910" width="60" height="60" transform="rotate(0,160,940)"/><rect x="130" y="1030" width="60" height="60" transform="rotate(0,160,1060)"/><rect x="130" y="1210" width="60" height="60" transform="rotate(0,160,1240)"/><rect x="190" y="670" width="60" height="60" transform="rotate(0,220,700)"/><rect x="190" y="730" width="60" height="60" transform="rotate(0,220,760)"/><rect x="190" y="790" width="60" height="60" transform="rotate(0,220,820)"/><rect x="190" y="970" width="60" height="60" transform="rotate(0,220,1000)"/><rect x="190" y="1030" width="60" height="60" transform="rotate(0,220,1060)"/><rect x="190" y="1090" width="60" height="60" transform="rotate(0,220,1120)"/><rect x="190" y="1210" width="60" height="60" transform="rotate(0,220,1240)"/><rect x="190" y="1330" width="60" height="60" transform="rotate(0,220,1360)"/><rect x="250" y="670" width="60" height="60" transform="rotate(0,280,700)"/><rect x="250" y="730" width="60" height="60" transform="rotate(0,280,760)"/><rect x="250" y="850" width="60" height="60" transform="rotate(0,280,880)"/><rect x="250" y="970" width="60" height="60" transform="rotate(0,280,1000)"/><rect x="250" y="1090" width="60" height="60" transform="rotate(0,280,1120)"/><rect x="250" y="1150" width="60" height="60" transform="rotate(0,280,1180)"/><rect x="250" y="1330" width="60" height="60" transform="rotate(0,280,1360)"/><rect x="310" y="610" width="60" height="60" transform="rotate(0,340,640)"/><rect x="310" y="730" width="60" height="60" transform="rotate(0,340,760)"/><rect x="310" y="850" width="60" height="60" transform="rotate(0,340,880)"/><rect x="310" y="970" width="60" height="60" transform="rotate(0,340,1000)"/><rect x="310" y="1090" width="60" height="60" transform="rotate(0,340,1120)"/><rect x="310" y="1150" width="60" height="60" transform="rotate(0,340,1180)"/><rect x="310" y="1210" width="60" height="60" transform="rotate(0,340,1240)"/><rect x="370" y="670" width="60" height="60" transform="rotate(0,400,700)"/><rect x="370" y="730" width="60" height="60" transform="rotate(0,400,760)"/><rect x="370" y="850" width="60" height="60" transform="rotate(0,400,880)"/><rect x="370" y="910" width="60" height="60" transform="rotate(0,400,940)"/><rect x="370" y="1090" width="60" height="60" transform="rotate(0,400,1120)"/><rect x="370" y="1150" width="60" height="60" transform="rotate(0,400,1180)"/><rect x="370" y="1210" width="60" height="60" transform="rotate(0,400,1240)"/><rect x="430" y="610" width="60" height="60" transform="rotate(0,460,640)"/><rect x="430" y="670" width="60" height="60" transform="rotate(0,460,700)"/><rect x="430" y="730" width="60" height="60" transform="rotate(0,460,760)"/><rect x="430" y="790" width="60" height="60" transform="rotate(0,460,820)"/><rect x="430" y="850" width="60" height="60" transform="rotate(0,460,880)"/><rect x="430" y="1030" width="60" height="60" transform="rotate(0,460,1060)"/><rect x="430" y="1210" width="60" height="60" transform="rotate(0,460,1240)"/><rect x="490" y="610" width="60" height="60" transform="rotate(0,520,640)"/><rect x="490" y="730" width="60" height="60" transform="rotate(0,520,760)"/><rect x="490" y="850" width="60" height="60" transform="rotate(0,520,880)"/><rect x="490" y="970" width="60" height="60" transform="rotate(0,520,1000)"/><rect x="490" y="1090" width="60" height="60" transform="rotate(0,520,1120)"/><rect x="490" y="1210" width="60" height="60" transform="rotate(0,520,1240)"/><rect x="490" y="1330" width="60" height="60" transform="rotate(0,520,1360)"/><rect x="550" y="610" width="60" height="60" transform="rotate(0,580,640)"/><rect x="550" y="730" width="60" height="60" transform="rotate(0,580,760)"/><rect x="550" y="790" width="60" height="60" transform="rotate(0,580,820)"/><rect x="550" y="850" width="60" height="60" transform="rotate(0,580,880)"/><rect x="550" y="1090" width="60" height="60" transform="rotate(0,580,1120)"/><rect x="550" y="1210" width="60" height="60" transform="rotate(0,580,1240)"/><rect x="550" y="1270" width="60" height="60" transform="rotate(0,580,1300)"/><rect x="550" y="1330" width="60" height="60" transform="rotate(0,580,1360)"/><rect x="610" y="190" width="60" height="60" transform="rotate(0,640,220)"/><rect x="610" y="250" width="60" height="60" transform="rotate(0,640,280)"/><rect x="610" y="490" width="60" height="60" transform="rotate(0,640,520)"/><rect x="610" y="730" width="60" height="60" transform="rotate(0,640,760)"/><rect x="610" y="790" width="60" height="60" transform="rotate(0,640,820)"/><rect x="610" y="970" width="60" height="60" transform="rotate(0,640,1000)"/><rect x="610" y="1030" width="60" height="60" transform="rotate(0,640,1060)"/><rect x="610" y="1150" width="60" height="60" transform="rotate(0,640,1180)"/><rect x="610" y="1330" width="60" height="60" transform="rotate(0,640,1360)"/><rect x="610" y="1450" width="60" height="60" transform="rotate(0,640,1480)"/><rect x="610" y="1510" width="60" height="60" transform="rotate(0,640,1540)"/><rect x="610" y="1630" width="60" height="60" transform="rotate(0,640,1660)"/><rect x="670" y="250" width="60" height="60" transform="rotate(0,700,280)"/><rect x="670" y="430" width="60" height="60" transform="rotate(0,700,460)"/><rect x="670" y="610" width="60" height="60" transform="rotate(0,700,640)"/><rect x="670" y="850" width="60" height="60" transform="rotate(0,700,880)"/><rect x="670" y="910" width="60" height="60" transform="rotate(0,700,940)"/><rect x="670" y="970" width="60" height="60" transform="rotate(0,700,1000)"/><rect x="670" y="1030" width="60" height="60" transform="rotate(0,700,1060)"/><rect x="670" y="1090" width="60" height="60" transform="rotate(0,700,1120)"/><rect x="670" y="1210" width="60" height="60" transform="rotate(0,700,1240)"/><rect x="670" y="1270" width="60" height="60" transform="rotate(0,700,1300)"/><rect x="670" y="1330" width="60" height="60" transform="rotate(0,700,1360)"/><rect x="670" y="1450" width="60" height="60" transform="rotate(0,700,1480)"/><rect x="670" y="1510" width="60" height="60" transform="rotate(0,700,1540)"/><rect x="670" y="1630" width="60" height="60" transform="rotate(0,700,1660)"/><rect x="670" y="1690" width="60" height="60" transform="rotate(0,700,1720)"/><rect x="670" y="1750" width="60" height="60" transform="rotate(0,700,1780)"/><rect x="670" y="1810" width="60" height="60" transform="rotate(0,700,1840)"/><rect x="730" y="130" width="60" height="60" transform="rotate(0,760,160)"/><rect x="730" y="190" width="60" height="60" transform="rotate(0,760,220)"/><rect x="730" y="370" width="60" height="60" transform="rotate(0,760,400)"/><rect x="730" y="430" width="60" height="60" transform="rotate(0,760,460)"/><rect x="730" y="490" width="60" height="60" transform="rotate(0,760,520)"/><rect x="730" y="550" width="60" height="60" transform="rotate(0,760,580)"/><rect x="730" y="670" width="60" height="60" transform="rotate(0,760,700)"/><rect x="730" y="790" width="60" height="60" transform="rotate(0,760,820)"/><rect x="730" y="1090" width="60" height="60" transform="rotate(0,760,1120)"/><rect x="730" y="1150" width="60" height="60" transform="rotate(0,760,1180)"/><rect x="730" y="1270" width="60" height="60" transform="rotate(0,760,1300)"/><rect x="730" y="1390" width="60" height="60" transform="rotate(0,760,1420)"/><rect x="730" y="1630" width="60" height="60" transform="rotate(0,760,1660)"/><rect x="730" y="1690" width="60" height="60" transform="rotate(0,760,1720)"/><rect x="730" y="1810" width="60" height="60" transform="rotate(0,760,1840)"/><rect x="790" y="130" width="60" height="60" transform="rotate(0,820,160)"/><rect x="790" y="250" width="60" height="60" transform="rotate(0,820,280)"/><rect x="790" y="310" width="60" height="60" transform="rotate(0,820,340)"/><rect x="790" y="430" width="60" height="60" transform="rotate(0,820,460)"/><rect x="790" y="550" width="60" height="60" transform="rotate(0,820,580)"/><rect x="790" y="610" width="60" height="60" transform="rotate(0,820,640)"/><rect x="790" y="730" width="60" height="60" transform="rotate(0,820,760)"/><rect x="790" y="790" width="60" height="60" transform="rotate(0,820,820)"/><rect x="790" y="850" width="60" height="60" transform="rotate(0,820,880)"/><rect x="790" y="1210" width="60" height="60" transform="rotate(0,820,1240)"/><rect x="790" y="1450" width="60" height="60" transform="rotate(0,820,1480)"/><rect x="790" y="1630" width="60" height="60" transform="rotate(0,820,1660)"/><rect x="850" y="130" width="60" height="60" transform="rotate(0,880,160)"/><rect x="850" y="190" width="60" height="60" transform="rotate(0,880,220)"/><rect x="850" y="250" width="60" height="60" transform="rotate(0,880,280)"/><rect x="850" y="310" width="60" height="60" transform="rotate(0,880,340)"/><rect x="850" y="490" width="60" height="60" transform="rotate(0,880,520)"/><rect x="850" y="610" width="60" height="60" transform="rotate(0,880,640)"/><rect x="850" y="670" width="60" height="60" transform="rotate(0,880,700)"/><rect x="850" y="730" width="60" height="60" transform="rotate(0,880,760)"/><rect x="850" y="910" width="60" height="60" transform="rotate(0,880,940)"/><rect x="850" y="1090" width="60" height="60" transform="rotate(0,880,1120)"/><rect x="850" y="1210" width="60" height="60" transform="rotate(0,880,1240)"/><rect x="850" y="1330" width="60" height="60" transform="rotate(0,880,1360)"/><rect x="850" y="1390" width="60" height="60" transform="rotate(0,880,1420)"/><rect x="850" y="1450" width="60" height="60" transform="rotate(0,880,1480)"/><rect x="850" y="1750" width="60" height="60" transform="rotate(0,880,1780)"/><rect x="910" y="190" width="60" height="60" transform="rotate(0,940,220)"/><rect x="910" y="430" width="60" height="60" transform="rotate(0,940,460)"/><rect x="910" y="550" width="60" height="60" transform="rotate(0,940,580)"/><rect x="910" y="790" width="60" height="60" transform="rotate(0,940,820)"/><rect x="910" y="910" width="60" height="60" transform="rotate(0,940,940)"/><rect x="910" y="1150" width="60" height="60" transform="rotate(0,940,1180)"/><rect x="910" y="1270" width="60" height="60" transform="rotate(0,940,1300)"/><rect x="910" y="1450" width="60" height="60" transform="rotate(0,940,1480)"/><rect x="910" y="1630" width="60" height="60" transform="rotate(0,940,1660)"/><rect x="910" y="1810" width="60" height="60" transform="rotate(0,940,1840)"/><rect x="970" y="370" width="60" height="60" transform="rotate(0,1000,400)"/><rect x="970" y="430" width="60" height="60" transform="rotate(0,1000,460)"/><rect x="970" y="490" width="60" height="60" transform="rotate(0,1000,520)"/><rect x="970" y="550" width="60" height="60" transform="rotate(0,1000,580)"/><rect x="970" y="670" width="60" height="60" transform="rotate(0,1000,700)"/><rect x="970" y="730" width="60" height="60" transform="rotate(0,1000,760)"/><rect x="970" y="790" width="60" height="60" transform="rotate(0,1000,820)"/><rect x="970" y="850" width="60" height="60" transform="rotate(0,1000,880)"/><rect x="970" y="910" width="60" height="60" transform="rotate(0,1000,940)"/><rect x="970" y="970" width="60" height="60" transform="rotate(0,1000,1000)"/><rect x="970" y="1030" width="60" height="60" transform="rotate(0,1000,1060)"/><rect x="970" y="1090" width="60" height="60" transform="rotate(0,1000,1120)"/><rect x="970" y="1270" width="60" height="60" transform="rotate(0,1000,1300)"/><rect x="970" y="1330" width="60" height="60" transform="rotate(0,1000,1360)"/><rect x="970" y="1450" width="60" height="60" transform="rotate(0,1000,1480)"/><rect x="970" y="1630" width="60" height="60" transform="rotate(0,1000,1660)"/><rect x="970" y="1690" width="60" height="60" transform="rotate(0,1000,1720)"/><rect x="970" y="1810" width="60" height="60" transform="rotate(0,1000,1840)"/><rect x="1030" y="130" width="60" height="60" transform="rotate(0,1060,160)"/><rect x="1030" y="250" width="60" height="60" transform="rotate(0,1060,280)"/><rect x="1030" y="310" width="60" height="60" transform="rotate(0,1060,340)"/><rect x="1030" y="730" width="60" height="60" transform="rotate(0,1060,760)"/><rect x="1030" y="790" width="60" height="60" transform="rotate(0,1060,820)"/><rect x="1030" y="850" width="60" height="60" transform="rotate(0,1060,880)"/><rect x="1030" y="970" width="60" height="60" transform="rotate(0,1060,1000)"/><rect x="1030" y="1030" width="60" height="60" transform="rotate(0,1060,1060)"/><rect x="1030" y="1090" width="60" height="60" transform="rotate(0,1060,1120)"/><rect x="1030" y="1210" width="60" height="60" transform="rotate(0,1060,1240)"/><rect x="1030" y="1330" width="60" height="60" transform="rotate(0,1060,1360)"/><rect x="1030" y="1390" width="60" height="60" transform="rotate(0,1060,1420)"/><rect x="1030" y="1630" width="60" height="60" transform="rotate(0,1060,1660)"/><rect x="1030" y="1750" width="60" height="60" transform="rotate(0,1060,1780)"/><rect x="1090" y="130" width="60" height="60" transform="rotate(0,1120,160)"/><rect x="1090" y="190" width="60" height="60" transform="rotate(0,1120,220)"/><rect x="1090" y="250" width="60" height="60" transform="rotate(0,1120,280)"/><rect x="1090" y="370" width="60" height="60" transform="rotate(0,1120,400)"/><rect x="1090" y="490" width="60" height="60" transform="rotate(0,1120,520)"/><rect x="1090" y="550" width="60" height="60" transform="rotate(0,1120,580)"/><rect x="1090" y="610" width="60" height="60" transform="rotate(0,1120,640)"/><rect x="1090" y="850" width="60" height="60" transform="rotate(0,1120,880)"/><rect x="1090" y="910" width="60" height="60" transform="rotate(0,1120,940)"/><rect x="1090" y="1030" width="60" height="60" transform="rotate(0,1120,1060)"/><rect x="1090" y="1090" width="60" height="60" transform="rotate(0,1120,1120)"/><rect x="1090" y="1270" width="60" height="60" transform="rotate(0,1120,1300)"/><rect x="1090" y="1330" width="60" height="60" transform="rotate(0,1120,1360)"/><rect x="1090" y="1450" width="60" height="60" transform="rotate(0,1120,1480)"/><rect x="1090" y="1570" width="60" height="60" transform="rotate(0,1120,1600)"/><rect x="1090" y="1810" width="60" height="60" transform="rotate(0,1120,1840)"/><rect x="1150" y="190" width="60" height="60" transform="rotate(0,1180,220)"/><rect x="1150" y="550" width="60" height="60" transform="rotate(0,1180,580)"/><rect x="1150" y="730" width="60" height="60" transform="rotate(0,1180,760)"/><rect x="1150" y="850" width="60" height="60" transform="rotate(0,1180,880)"/><rect x="1150" y="910" width="60" height="60" transform="rotate(0,1180,940)"/><rect x="1150" y="1150" width="60" height="60" transform="rotate(0,1180,1180)"/><rect x="1150" y="1270" width="60" height="60" transform="rotate(0,1180,1300)"/><rect x="1150" y="1330" width="60" height="60" transform="rotate(0,1180,1360)"/><rect x="1150" y="1390" width="60" height="60" transform="rotate(0,1180,1420)"/><rect x="1150" y="1450" width="60" height="60" transform="rotate(0,1180,1480)"/><rect x="1150" y="1510" width="60" height="60" transform="rotate(0,1180,1540)"/><rect x="1150" y="1810" width="60" height="60" transform="rotate(0,1180,1840)"/><rect x="1210" y="130" width="60" height="60" transform="rotate(0,1240,160)"/><rect x="1210" y="190" width="60" height="60" transform="rotate(0,1240,220)"/><rect x="1210" y="370" width="60" height="60" transform="rotate(0,1240,400)"/><rect x="1210" y="490" width="60" height="60" transform="rotate(0,1240,520)"/><rect x="1210" y="550" width="60" height="60" transform="rotate(0,1240,580)"/><rect x="1210" y="610" width="60" height="60" transform="rotate(0,1240,640)"/><rect x="1210" y="670" width="60" height="60" transform="rotate(0,1240,700)"/><rect x="1210" y="970" width="60" height="60" transform="rotate(0,1240,1000)"/><rect x="1210" y="1030" width="60" height="60" transform="rotate(0,1240,1060)"/><rect x="1210" y="1090" width="60" height="60" transform="rotate(0,1240,1120)"/><rect x="1210" y="1270" width="60" height="60" transform="rotate(0,1240,1300)"/><rect x="1210" y="1330" width="60" height="60" transform="rotate(0,1240,1360)"/><rect x="1210" y="1510" width="60" height="60" transform="rotate(0,1240,1540)"/><rect x="1210" y="1630" width="60" height="60" transform="rotate(0,1240,1660)"/><rect x="1210" y="1690" width="60" height="60" transform="rotate(0,1240,1720)"/><rect x="1210" y="1810" width="60" height="60" transform="rotate(0,1240,1840)"/><rect x="1270" y="370" width="60" height="60" transform="rotate(0,1300,400)"/><rect x="1270" y="430" width="60" height="60" transform="rotate(0,1300,460)"/><rect x="1270" y="730" width="60" height="60" transform="rotate(0,1300,760)"/><rect x="1270" y="790" width="60" height="60" transform="rotate(0,1300,820)"/><rect x="1270" y="850" width="60" height="60" transform="rotate(0,1300,880)"/><rect x="1270" y="910" width="60" height="60" transform="rotate(0,1300,940)"/><rect x="1270" y="970" width="60" height="60" transform="rotate(0,1300,1000)"/><rect x="1270" y="1090" width="60" height="60" transform="rotate(0,1300,1120)"/><rect x="1270" y="1210" width="60" height="60" transform="rotate(0,1300,1240)"/><rect x="1270" y="1270" width="60" height="60" transform="rotate(0,1300,1300)"/><rect x="1270" y="1330" width="60" height="60" transform="rotate(0,1300,1360)"/><rect x="1270" y="1390" width="60" height="60" transform="rotate(0,1300,1420)"/><rect x="1270" y="1450" width="60" height="60" transform="rotate(0,1300,1480)"/><rect x="1270" y="1630" width="60" height="60" transform="rotate(0,1300,1660)"/><rect x="1330" y="130" width="60" height="60" transform="rotate(0,1360,160)"/><rect x="1330" y="190" width="60" height="60" transform="rotate(0,1360,220)"/><rect x="1330" y="430" width="60" height="60" transform="rotate(0,1360,460)"/><rect x="1330" y="490" width="60" height="60" transform="rotate(0,1360,520)"/><rect x="1330" y="670" width="60" height="60" transform="rotate(0,1360,700)"/><rect x="1330" y="730" width="60" height="60" transform="rotate(0,1360,760)"/><rect x="1330" y="910" width="60" height="60" transform="rotate(0,1360,940)"/><rect x="1330" y="970" width="60" height="60" transform="rotate(0,1360,1000)"/><rect x="1330" y="1030" width="60" height="60" transform="rotate(0,1360,1060)"/><rect x="1330" y="1090" width="60" height="60" transform="rotate(0,1360,1120)"/><rect x="1330" y="1150" width="60" height="60" transform="rotate(0,1360,1180)"/><rect x="1330" y="1270" width="60" height="60" transform="rotate(0,1360,1300)"/><rect x="1330" y="1330" width="60" height="60" transform="rotate(0,1360,1360)"/><rect x="1330" y="1390" width="60" height="60" transform="rotate(0,1360,1420)"/><rect x="1330" y="1450" width="60" height="60" transform="rotate(0,1360,1480)"/><rect x="1330" y="1510" width="60" height="60" transform="rotate(0,1360,1540)"/><rect x="1330" y="1570" width="60" height="60" transform="rotate(0,1360,1600)"/><rect x="1330" y="1630" width="60" height="60" transform="rotate(0,1360,1660)"/><rect x="1330" y="1750" width="60" height="60" transform="rotate(0,1360,1780)"/><rect x="1330" y="1810" width="60" height="60" transform="rotate(0,1360,1840)"/><rect x="1390" y="610" width="60" height="60" transform="rotate(0,1420,640)"/><rect x="1390" y="850" width="60" height="60" transform="rotate(0,1420,880)"/><rect x="1390" y="970" width="60" height="60" transform="rotate(0,1420,1000)"/><rect x="1390" y="1090" width="60" height="60" transform="rotate(0,1420,1120)"/><rect x="1390" y="1270" width="60" height="60" transform="rotate(0,1420,1300)"/><rect x="1390" y="1330" width="60" height="60" transform="rotate(0,1420,1360)"/><rect x="1390" y="1570" width="60" height="60" transform="rotate(0,1420,1600)"/><rect x="1390" y="1630" width="60" height="60" transform="rotate(0,1420,1660)"/><rect x="1390" y="1810" width="60" height="60" transform="rotate(0,1420,1840)"/><rect x="1450" y="730" width="60" height="60" transform="rotate(0,1480,760)"/><rect x="1450" y="790" width="60" height="60" transform="rotate(0,1480,820)"/><rect x="1450" y="850" width="60" height="60" transform="rotate(0,1480,880)"/><rect x="1450" y="1030" width="60" height="60" transform="rotate(0,1480,1060)"/><rect x="1450" y="1210" width="60" height="60" transform="rotate(0,1480,1240)"/><rect x="1450" y="1330" width="60" height="60" transform="rotate(0,1480,1360)"/><rect x="1450" y="1450" width="60" height="60" transform="rotate(0,1480,1480)"/><rect x="1450" y="1570" width="60" height="60" transform="rotate(0,1480,1600)"/><rect x="1450" y="1630" width="60" height="60" transform="rotate(0,1480,1660)"/><rect x="1450" y="1690" width="60" height="60" transform="rotate(0,1480,1720)"/><rect x="1450" y="1810" width="60" height="60" transform="rotate(0,1480,1840)"/><rect x="1510" y="670" width="60" height="60" transform="rotate(0,1540,700)"/><rect x="1510" y="850" width="60" height="60" transform="rotate(0,1540,880)"/><rect x="1510" y="970" width="60" height="60" transform="rotate(0,1540,1000)"/><rect x="1510" y="1090" width="60" height="60" transform="rotate(0,1540,1120)"/><rect x="1510" y="1270" width="60" height="60" transform="rotate(0,1540,1300)"/><rect x="1510" y="1330" width="60" height="60" transform="rotate(0,1540,1360)"/><rect x="1510" y="1570" width="60" height="60" transform="rotate(0,1540,1600)"/><rect x="1510" y="1630" width="60" height="60" transform="rotate(0,1540,1660)"/><rect x="1570" y="730" width="60" height="60" transform="rotate(0,1600,760)"/><rect x="1570" y="850" width="60" height="60" transform="rotate(0,1600,880)"/><rect x="1570" y="970" width="60" height="60" transform="rotate(0,1600,1000)"/><rect x="1570" y="1270" width="60" height="60" transform="rotate(0,1600,1300)"/><rect x="1570" y="1330" width="60" height="60" transform="rotate(0,1600,1360)"/><rect x="1570" y="1390" width="60" height="60" transform="rotate(0,1600,1420)"/><rect x="1570" y="1450" width="60" height="60" transform="rotate(0,1600,1480)"/><rect x="1570" y="1510" width="60" height="60" transform="rotate(0,1600,1540)"/><rect x="1570" y="1570" width="60" height="60" transform="rotate(0,1600,1600)"/><rect x="1570" y="1750" width="60" height="60" transform="rotate(0,1600,1780)"/><rect x="1630" y="670" width="60" height="60" transform="rotate(0,1660,700)"/><rect x="1630" y="910" width="60" height="60" transform="rotate(0,1660,940)"/><rect x="1630" y="970" width="60" height="60" transform="rotate(0,1660,1000)"/><rect x="1630" y="1030" width="60" height="60" transform="rotate(0,1660,1060)"/><rect x="1630" y="1090" width="60" height="60" transform="rotate(0,1660,1120)"/><rect x="1630" y="1150" width="60" height="60" transform="rotate(0,1660,1180)"/><rect x="1630" y="1270" width="60" height="60" transform="rotate(0,1660,1300)"/><rect x="1630" y="1330" width="60" height="60" transform="rotate(0,1660,1360)"/><rect x="1630" y="1510" width="60" height="60" transform="rotate(0,1660,1540)"/><rect x="1630" y="1570" width="60" height="60" transform="rotate(0,1660,1600)"/><rect x="1630" y="1630" width="60" height="60" transform="rotate(0,1660,1660)"/><rect x="1630" y="1810" width="60" height="60" transform="rotate(0,1660,1840)"/><rect x="1690" y="610" width="60" height="60" transform="rotate(0,1720,640)"/><rect x="1690" y="670" width="60" height="60" transform="rotate(0,1720,700)"/><rect x="1690" y="730" width="60" height="60" transform="rotate(0,1720,760)"/><rect x="1690" y="790" width="60" height="60" transform="rotate(0,1720,820)"/><rect x="1690" y="970" width="60" height="60" transform="rotate(0,1720,1000)"/><rect x="1690" y="1030" width="60" height="60" transform="rotate(0,1720,1060)"/><rect x="1690" y="1150" width="60" height="60" transform="rotate(0,1720,1180)"/><rect x="1690" y="1390" width="60" height="60" transform="rotate(0,1720,1420)"/><rect x="1690" y="1570" width="60" height="60" transform="rotate(0,1720,1600)"/><rect x="1690" y="1690" width="60" height="60" transform="rotate(0,1720,1720)"/><rect x="1690" y="1750" width="60" height="60" transform="rotate(0,1720,1780)"/><rect x="1690" y="1810" width="60" height="60" transform="rotate(0,1720,1840)"/><rect x="1750" y="610" width="60" height="60" transform="rotate(0,1780,640)"/><rect x="1750" y="910" width="60" height="60" transform="rotate(0,1780,940)"/><rect x="1750" y="970" width="60" height="60" transform="rotate(0,1780,1000)"/><rect x="1750" y="1030" width="60" height="60" transform="rotate(0,1780,1060)"/><rect x="1750" y="1090" width="60" height="60" transform="rotate(0,1780,1120)"/><rect x="1750" y="1270" width="60" height="60" transform="rotate(0,1780,1300)"/><rect x="1750" y="1330" width="60" height="60" transform="rotate(0,1780,1360)"/><rect x="1750" y="1630" width="60" height="60" transform="rotate(0,1780,1660)"/><rect x="1810" y="670" width="60" height="60" transform="rotate(0,1840,700)"/><rect x="1810" y="790" width="60" height="60" transform="rotate(0,1840,820)"/><rect x="1810" y="850" width="60" height="60" transform="rotate(0,1840,880)"/><rect x="1810" y="910" width="60" height="60" transform="rotate(0,1840,940)"/><rect x="1810" y="1090" width="60" height="60" transform="rotate(0,1840,1120)"/><rect x="1810" y="1150" width="60" height="60" transform="rotate(0,1840,1180)"/><rect x="1810" y="1330" width="60" height="60" transform="rotate(0,1840,1360)"/><rect x="1810" y="1390" width="60" height="60" transform="rotate(0,1840,1420)"/><rect x="1810" y="1510" width="60" height="60" transform="rotate(0,1840,1540)"/><rect x="1810" y="1570" width="60" height="60" transform="rotate(0,1840,1600)"/><rect x="1810" y="1810" width="60" height="60" transform="rotate(0,1840,1840)"/></clipPath><clipPath id="clip-path-corners-square-color-0-0"><path clip-rule="evenodd" d="M 130 130v 420h 420v -420zM 190 190h 300v 300h -300z" transform="rotate(0,340,340)"/></clipPath><clipPath id="clip-path-corners-dot-color-0-0"><rect x="250" y="250" width="180" height="180" transform="rotate(0,340,340)"/></clipPath><clipPath id="clip-path-corners-square-color-1-0"><path clip-rule="evenodd" d="M 1450 130v 420h 420v -420zM 1510 190h 300v 300h -300z" transform="rotate(90,1660,340)"/></clipPath><clipPath id="clip-path-corners-dot-color-1-0"><rect x="1570" y="250" width="180" height="180" transform="rotate(90,1660,340)"/></clipPath><clipPath id="clip-path-corners-square-color-0-1"><path clip-rule="evenodd" d="M 130 1450v 420h 420v -420zM 190 1510h 300v 300h -300z" transform="rotate(-90,340,1660)"/></clipPath><clipPath id="clip-path-corners-dot-color-0-1"><rect x="250" y="1570" width="180" height="180" transform="rotate(-90,340,1660)"/></clipPath></defs><rect x="0" y="0" height="2000" width="2000" clip-path="url('#clip-path-background-color')" fill="#ffffff"/><rect x="130" y="130" height="1740" width="1740" clip-path="url('#clip-path-dot-color')" fill="#000000"/><rect x="130" y="130" height="420" width="420" clip-path="url('#clip-path-corners-square-color-0-0')" fill="#000000"/><rect x="250" y="250" height="180" width="180" clip-path="url('#clip-path-corners-dot-color-0-0')" fill="#000000"/><rect x="1450" y="130" height="420" width="420" clip-path="url('#clip-path-corners-square-color-1-0')" fill="#000000"/><rect x="1570" y="250" height="180" width="180" clip-path="url('#clip-path-corners-dot-color-1-0')" fill="#000000"/><rect x="130" y="1450" height="420" width="420" clip-path="url('#clip-path-corners-square-color-0-1')" fill="#000000"/><rect x="250" y="1570" height="180" width="180" clip-path="url('#clip-path-corners-dot-color-0-1')" fill="#000000"/></svg>